<svg width="24" height="24" viewBox="0 0 24 24" fill="none" xmlns="http://www.w3.org/2000/svg">
<g clip-path="url(#clip0_469_38)">
<path d="M12.0002 16.9752L13.4752 15.5002H15.5002V13.4752L16.9752 12.0002L15.5002 10.5252V8.5002H13.4752L12.0002 7.0252L10.5252 8.5002H8.5002V10.5252L7.0252 12.0002L8.5002 13.4752V15.5002H10.5252L12.0002 16.9752ZM12.0002 23.3002L8.6502 20.0002H4.0002V15.3502L0.700195 12.0002L4.0002 8.6502V4.0002H8.6502L12.0002 0.700195L15.3502 4.0002H20.0002V8.6502L23.3002 12.0002L20.0002 15.3502V20.0002H15.3502L12.0002 23.3002ZM12.0002 20.5002L14.5002 18.0002H18.0002V14.5002L20.5002 12.0002L18.0002 9.5002V6.0002H14.5002L12.0002 3.5002L9.5002 6.0002H6.0002V9.5002L3.5002 12.0002L6.0002 14.5002V18.0002H9.5002L12.0002 20.5002Z" fill="#261C15"/>
</g>
<defs>
<clipPath id="clip0_469_38">
<rect width="24" height="24" fill="white"/>
</clipPath>
</defs>
</svg>
