<svg width="24" height="24" viewBox="0 0 24 24" fill="none" xmlns="http://www.w3.org/2000/svg">
<g clip-path="url(#clip0_667_2)">
<mask id="mask0_667_2" style="mask-type:luminance" maskUnits="userSpaceOnUse" x="0" y="0" width="24" height="24">
<path d="M24 0H0V24H24V0Z" fill="white"/>
</mask>
<g mask="url(#mask0_667_2)">
<path d="M11.9992 16.9752L13.4742 15.5002H15.4992V13.4752L16.9742 12.0002L15.4992 10.5252V8.5002H13.4742L11.9992 7.0252L10.5242 8.5002H8.49922V10.5252L7.02422 12.0002L8.49922 13.4752V15.5002H10.5242L11.9992 16.9752ZM11.9992 23.3002L8.64922 20.0002H3.99922V15.3502L0.699219 12.0002L3.99922 8.6502V4.0002H8.64922L11.9992 0.700195L15.3492 4.0002H19.9992V8.6502L23.2992 12.0002L19.9992 15.3502V20.0002H15.3492L11.9992 23.3002ZM11.9992 20.5002L14.4992 18.0002H17.9992V14.5002L20.4992 12.0002L17.9992 9.5002V6.0002H14.4992L11.9992 3.5002L9.49922 6.0002H5.99922V9.5002L3.49922 12.0002L5.99922 14.5002V18.0002H9.49922L11.9992 20.5002Z" fill="#FCF7FF"/>
</g>
</g>
<defs>
<clipPath id="clip0_667_2">
<rect width="24" height="24" fill="white"/>
</clipPath>
</defs>
</svg>
