<svg width="24" height="24" viewBox="0 0 24 24" fill="none" xmlns="http://www.w3.org/2000/svg">
<g id="change">
<path id="Vector" d="M12.05 19L14.9 16.175L12.05 13.35L11 14.4L12.075 15.475C11.6083 15.4917 11.1542 15.4167 10.7125 15.25C10.2708 15.0833 9.875 14.825 9.525 14.475C9.19167 14.1417 8.9375 13.7583 8.7625 13.325C8.5875 12.8917 8.5 12.4583 8.5 12.025C8.5 11.7417 8.5375 11.4583 8.6125 11.175C8.6875 10.8917 8.79167 10.6167 8.925 10.35L7.825 9.25C7.54167 9.66667 7.33333 10.1083 7.2 10.575C7.06667 11.0417 7 11.5167 7 12C7 12.6333 7.125 13.2583 7.375 13.875C7.625 14.4917 7.99167 15.0417 8.475 15.525C8.95833 16.0083 9.5 16.3708 10.1 16.6125C10.7 16.8542 11.3167 16.9833 11.95 17L11 17.95L12.05 19ZM16.175 14.75C16.4583 14.3333 16.6667 13.8917 16.8 13.425C16.9333 12.9583 17 12.4833 17 12C17 11.3667 16.8792 10.7375 16.6375 10.1125C16.3958 9.4875 16.0333 8.93333 15.55 8.45C15.0667 7.96667 14.5208 7.60833 13.9125 7.375C13.3042 7.14167 12.6833 7.025 12.05 7.025L13 6.05L11.95 5L9.1 7.825L11.95 10.65L13 9.6L11.9 8.5C12.35 8.5 12.8083 8.5875 13.275 8.7625C13.7417 8.9375 14.1417 9.19167 14.475 9.525C14.8083 9.85833 15.0625 10.2417 15.2375 10.675C15.4125 11.1083 15.5 11.5417 15.5 11.975C15.5 12.2583 15.4625 12.5417 15.3875 12.825C15.3125 13.1083 15.2083 13.3833 15.075 13.65L16.175 14.75ZM12 22C10.6167 22 9.31667 21.7375 8.1 21.2125C6.88333 20.6875 5.825 19.975 4.925 19.075C4.025 18.175 3.3125 17.1167 2.7875 15.9C2.2625 14.6833 2 13.3833 2 12C2 10.6167 2.2625 9.31667 2.7875 8.1C3.3125 6.88333 4.025 5.825 4.925 4.925C5.825 4.025 6.88333 3.3125 8.1 2.7875C9.31667 2.2625 10.6167 2 12 2C13.3833 2 14.6833 2.2625 15.9 2.7875C17.1167 3.3125 18.175 4.025 19.075 4.925C19.975 5.825 20.6875 6.88333 21.2125 8.1C21.7375 9.31667 22 10.6167 22 12C22 13.3833 21.7375 14.6833 21.2125 15.9C20.6875 17.1167 19.975 18.175 19.075 19.075C18.175 19.975 17.1167 20.6875 15.9 21.2125C14.6833 21.7375 13.3833 22 12 22ZM12 20C14.2333 20 16.125 19.225 17.675 17.675C19.225 16.125 20 14.2333 20 12C20 9.76667 19.225 7.875 17.675 6.325C16.125 4.775 14.2333 4 12 4C9.76667 4 7.875 4.775 6.325 6.325C4.775 7.875 4 9.76667 4 12C4 14.2333 4.775 16.125 6.325 17.675C7.875 19.225 9.76667 20 12 20Z" fill="#FCF7FF"/>
</g>
</svg>
