<svg width="24" height="24" viewBox="0 0 24 24" fill="none" xmlns="http://www.w3.org/2000/svg">
<path d="M11 21L7.825 18.15C6.625 17.0667 5.59583 16.1 4.7375 15.25C3.87917 14.4 3.17083 13.6 2.6125 12.85C2.05417 12.1 1.64583 11.375 1.3875 10.675C1.12917 9.975 1 9.24167 1 8.475C1 6.90833 1.525 5.60417 2.575 4.5625C3.625 3.52083 4.93333 3 6.5 3C7.36667 3 8.19167 3.18333 8.975 3.55C9.75833 3.91667 10.4333 4.43333 11 5.1C11.5667 4.43333 12.2417 3.91667 13.025 3.55C13.8083 3.18333 14.6333 3 15.5 3C16.85 3 17.9833 3.37917 18.9 4.1375C19.8167 4.89583 20.4417 5.85 20.775 7H18.65C18.35 6.33333 17.9083 5.83333 17.325 5.5C16.7417 5.16667 16.1333 5 15.5 5C14.65 5 13.9167 5.22917 13.3 5.6875C12.6833 6.14583 12.1083 6.75 11.575 7.5H10.425C9.90833 6.75 9.32083 6.14583 8.6625 5.6875C8.00417 5.22917 7.28333 5 6.5 5C5.55 5 4.72917 5.32917 4.0375 5.9875C3.34583 6.64583 3 7.475 3 8.475C3 9.025 3.11667 9.58333 3.35 10.15C3.58333 10.7167 4 11.3708 4.6 12.1125C5.2 12.8542 6.01667 13.7208 7.05 14.7125C8.08333 15.7042 9.4 16.9 11 18.3C11.4333 17.9167 11.9417 17.475 12.525 16.975C13.1083 16.475 13.575 16.0583 13.925 15.725L14.15 15.95L14.6375 16.4375L15.125 16.925L15.35 17.15C14.9833 17.4833 14.5167 17.8958 13.95 18.3875C13.3833 18.8792 12.8833 19.3167 12.45 19.7L11 21ZM18 17V14H15V12H18V9H20V12H23V14H20V17H18Z" fill="#261C15"/>
</svg>
